<svg width="24" height="24" viewBox="0 0 24 24" fill="none" xmlns="http://www.w3.org/2000/svg">
<path d="M13.4999 12.423C12.9359 12.423 12.4616 12.2306 12.0769 11.846C11.6922 11.4613 11.4999 10.987 11.4999 10.423C11.4999 9.85898 11.6922 9.38465 12.0769 8.99998C12.4616 8.61531 12.9359 8.42298 13.4999 8.42298C14.0639 8.42298 14.5382 8.61531 14.9229 8.99998C15.3076 9.38465 15.4999 9.85898 15.4999 10.423C15.4999 10.987 15.3076 11.4613 14.9229 11.846C14.5382 12.2306 14.0639 12.423 13.4999 12.423ZM5.69189 15.616V5.22998H21.3079V15.615L5.69189 15.616ZM8.30789 14.616H18.6919C18.6919 14.168 18.8502 13.7866 19.1669 13.472C19.4829 13.1573 19.8629 13 20.3069 13V7.84598C19.8602 7.84598 19.4796 7.68798 19.1649 7.37198C18.8496 7.05531 18.6919 6.67498 18.6919 6.23098H8.30789C8.30789 6.67831 8.14956 7.05931 7.83289 7.37398C7.51689 7.68865 7.13689 7.84598 6.69289 7.84598V13C7.13956 13 7.52056 13.1583 7.83589 13.475C8.15056 13.791 8.30789 14.172 8.30789 14.616ZM2.69189 18.615V8.19298H3.69189V17.617H18.3459V18.617L2.69189 18.615Z" fill="white"/>
</svg>
