<svg width="51" height="51" viewBox="0 0 51 51" fill="none" xmlns="http://www.w3.org/2000/svg">
<path d="M40.9062 5.84375H10.0938C8.96658 5.84375 7.88558 6.29152 7.08855 7.08855C6.29152 7.88558 5.84375 8.96658 5.84375 10.0938V40.9062C5.84375 42.0334 6.29152 43.1144 7.08855 43.9115C7.88558 44.7085 8.96658 45.1562 10.0938 45.1562H40.9062C42.0334 45.1562 43.1144 44.7085 43.9115 43.9115C44.7085 43.1144 45.1562 42.0334 45.1562 40.9062V10.0938C45.1562 8.96658 44.7085 7.88558 43.9115 7.08855C43.1144 6.29152 42.0334 5.84375 40.9062 5.84375Z" stroke="#D9D9D9" stroke-width="0.5" stroke-linecap="round" stroke-linejoin="round"/>
<path d="M14.6561 34.0595H34.8181C43.7399 34.0595 42.2641 22.3029 33.9809 22.3029C28.3772 12.9699 15.9492 17.0298 15.9492 25.2482C8.58392 25.2482 8.24817 34.0595 14.6561 34.0595Z" stroke="#D9D9D9" stroke-width="0.5" stroke-linecap="round" stroke-linejoin="round"/>
</svg>
