<svg width="35" height="36" viewBox="0 0 35 36" fill="none" xmlns="http://www.w3.org/2000/svg">
<path fill-rule="evenodd" clip-rule="evenodd" d="M17.5 0.0847168C19.7981 0.084706 22.0737 0.537348 24.1969 1.4168C26.3201 2.29625 28.2493 3.58528 29.8744 5.21031C31.4994 6.83533 32.7884 8.76451 33.6679 10.8877C34.5473 13.0109 35 15.2865 35 17.5847C35 27.2497 27.165 35.0847 17.5 35.0847C7.83504 35.0847 0 27.2497 0 17.5847C0 7.91976 7.83504 0.0847168 17.5 0.0847168ZM19.25 19.3347H15.75C11.4175 19.3347 7.69797 21.9587 6.09369 25.7043C8.63206 29.2637 12.795 31.5847 17.5 31.5847C22.2049 31.5847 26.3679 29.2637 28.9063 25.704C27.302 21.9587 23.5825 19.3347 19.25 19.3347ZM17.5 5.33471C14.6005 5.33471 12.25 7.68524 12.25 10.5847C12.25 13.4842 14.6005 15.8347 17.5 15.8347C20.3994 15.8347 22.75 13.4842 22.75 10.5847C22.75 7.68524 20.3995 5.33471 17.5 5.33471Z" fill="#0060EC"/>
</svg>
