<svg width="20" height="20" viewBox="0 0 20 20" fill="none" xmlns="http://www.w3.org/2000/svg">
<path d="M7.8903 8.93398H2.2668C1.7568 8.93398 1.3418 8.51848 1.3418 8.00698V2.38398C1.3418 1.87398 1.7568 1.45898 2.2668 1.45898H7.8903C8.4003 1.45898 8.8153 1.87398 8.8153 2.38398V8.00748C8.8153 8.51848 8.4003 8.93398 7.8903 8.93398ZM2.2668 1.90198C2.13905 1.90212 2.01658 1.95296 1.92629 2.04334C1.83601 2.13371 1.7853 2.25624 1.7853 2.38398V8.00748C1.7853 8.27398 2.0013 8.49098 2.2668 8.49098H7.8903C8.01822 8.49059 8.14077 8.43946 8.23104 8.34881C8.32131 8.25817 8.37193 8.13541 8.3718 8.00748V2.38398C8.3718 2.25624 8.32108 2.13371 8.2308 2.04334C8.14051 1.95296 8.01804 1.90212 7.8903 1.90198H2.2668ZM17.7343 8.93398H12.1093C11.8638 8.93345 11.6286 8.83554 11.4553 8.66174C11.2819 8.48793 11.1847 8.25245 11.1848 8.00698V2.38398C11.1848 1.87398 11.5993 1.45898 12.1093 1.45898H17.7343C17.9794 1.45938 18.2143 1.55701 18.3874 1.73044C18.5605 1.90387 18.6578 2.13892 18.6578 2.38398V8.00748C18.6578 8.25269 18.5606 8.48789 18.3875 8.66156C18.2144 8.83523 17.9795 8.93319 17.7343 8.93398ZM12.1093 1.90198C11.9815 1.90212 11.8591 1.95296 11.7688 2.04334C11.6785 2.13371 11.6278 2.25624 11.6278 2.38398V8.00748C11.6278 8.27398 11.8438 8.49098 12.1093 8.49098H17.7343C17.9943 8.49098 18.2143 8.26948 18.2143 8.00748V2.38398C18.2146 2.32078 18.2023 2.25815 18.1783 2.19968C18.1543 2.14121 18.119 2.08806 18.0744 2.04328C18.0298 1.9985 17.9768 1.96296 17.9184 1.93871C17.8601 1.91447 17.7975 1.90198 17.7343 1.90198H12.1093ZM7.8903 18.5415H2.2668C1.7568 18.5415 1.3418 18.1265 1.3418 17.6165V11.9915C1.3418 11.481 1.7568 11.066 2.2668 11.066H7.8903C8.4003 11.066 8.8153 11.481 8.8153 11.9915V17.616C8.8153 18.126 8.4003 18.5415 7.8903 18.5415ZM2.2668 11.5095C2.13909 11.5097 2.0167 11.5606 1.92644 11.651C1.83618 11.7413 1.78543 11.8638 1.7853 11.9915V17.616C1.7853 17.882 2.0013 18.098 2.2668 18.098H7.8903C8.01804 18.0979 8.14051 18.047 8.2308 17.9566C8.32108 17.8663 8.3718 17.7437 8.3718 17.616V11.9915C8.3718 11.8637 8.32108 11.7412 8.2308 11.6508C8.14051 11.5605 8.01804 11.5096 7.8903 11.5095H2.2668ZM17.7343 18.5415H12.1093C11.5993 18.5415 11.1848 18.1265 11.1848 17.6165V11.9915C11.1848 11.481 11.5993 11.066 12.1093 11.066H17.7343C18.2433 11.066 18.6578 11.481 18.6578 11.9915V17.616C18.6579 17.8611 18.5607 18.0963 18.3876 18.2699C18.2144 18.4434 17.9795 18.5411 17.7343 18.5415ZM12.1093 11.5095C11.9816 11.5097 11.8592 11.5606 11.7689 11.651C11.6787 11.7413 11.6279 11.8638 11.6278 11.9915V17.616C11.6278 17.882 11.8438 18.098 12.1093 18.098H17.7343C17.9993 18.098 18.2143 17.882 18.2143 17.616V11.9915C18.2146 11.9283 18.2023 11.8656 18.1783 11.8072C18.1543 11.7487 18.119 11.6956 18.0744 11.6508C18.0298 11.606 17.9768 11.5705 17.9184 11.5462C17.8601 11.522 17.7975 11.5095 17.7343 11.5095H12.1093Z" fill="white"/>
</svg>
