<svg width="24" height="24" viewBox="0 0 24 24" fill="none" xmlns="http://www.w3.org/2000/svg">
<path d="M10.5678 2.97498C10.1771 3.29457 9.9173 3.7465 9.83778 4.24498C9.80506 4.39875 9.73654 4.54264 9.63778 4.66498C9.54324 4.79208 9.41985 4.8949 9.27778 4.96498L8.48778 5.34498C7.85446 5.65619 7.29261 6.09546 6.83778 6.63498C5.43778 8.30498 5.43778 9.05498 5.43778 11.905C5.43778 13.195 4.06778 14.365 3.70778 15.525C3.48778 16.215 3.36778 17.775 5.18778 17.775H18.7678C19.0338 17.7865 19.2984 17.7315 19.5378 17.615C19.7762 17.4962 19.9822 17.3212 20.1378 17.105C20.2858 16.887 20.3778 16.636 20.4078 16.375C20.4304 16.1082 20.3857 15.84 20.2778 15.595C19.9178 14.505 18.4878 13.205 18.4878 11.915V9.78498" stroke="white" stroke-width="1.5" stroke-linecap="round" stroke-linejoin="round"/>
<path d="M15.228 17.775C15.231 18.202 15.153 18.626 14.998 19.025C14.8303 19.4199 14.5894 19.7796 14.288 20.085C13.9831 20.3907 13.6195 20.6317 13.2191 20.7932C12.8187 20.9547 12.3897 21.0336 11.958 21.025C11.5254 21.0277 11.0968 20.9426 10.698 20.775C9.89843 20.4403 9.26264 19.8045 8.92798 19.005C8.77112 18.6141 8.69296 18.1961 8.69798 17.775" stroke="white" stroke-width="1.5" stroke-linecap="round" stroke-linejoin="round"/>
<path d="M15.2275 7.97498C16.6083 7.97498 17.7275 6.85569 17.7275 5.47498C17.7275 4.09426 16.6083 2.97498 15.2275 2.97498C13.8468 2.97498 12.7275 4.09426 12.7275 5.47498C12.7275 6.85569 13.8468 7.97498 15.2275 7.97498Z" stroke="white" stroke-width="1.5"/>
</svg>
